<?xml version="1.0" encoding="UTF-8" standalone="no"?>
<svg
   viewBox="0 0 448 512"
   version="1.1"
   id="svg4"
   sodipodi:docname="bars-solid.svg"
   inkscape:version="1.1.2 (76b9e6a115, 2022-02-25)"
   inkscape:export-filename="/home/jose/Platzi/retoPlatziWeb/src/img/bars-solid.png"
   inkscape:export-xdpi="96"
   inkscape:export-ydpi="96"
   xmlns:inkscape="http://www.inkscape.org/namespaces/inkscape"
   xmlns:sodipodi="http://sodipodi.sourceforge.net/DTD/sodipodi-0.dtd"
   xmlns="http://www.w3.org/2000/svg"
   xmlns:svg="http://www.w3.org/2000/svg">
  <defs
     id="defs8" />
  <sodipodi:namedview
     id="namedview6"
     pagecolor="#ffffff"
     bordercolor="#666666"
     borderopacity="1.0"
     inkscape:pageshadow="2"
     inkscape:pageopacity="0.0"
     inkscape:pagecheckerboard="0"
     showgrid="false"
     inkscape:zoom="0.41210938"
     inkscape:cx="833.51659"
     inkscape:cy="-1.2132701"
     inkscape:window-width="1848"
     inkscape:window-height="1016"
     inkscape:window-x="72"
     inkscape:window-y="27"
     inkscape:window-maximized="1"
     inkscape:current-layer="svg4" />
  <!--! Font Awesome Pro 6.0.0 by @fontawesome - https://fontawesome.com License - https://fontawesome.com/license (Commercial License) Copyright 2022 Fonticons, Inc. -->
  <path
     style="fill:#ffffff;stroke:none;stroke-width:0.606635"
     d="m 27.541471,119.83504 c -4.03467,-0.67462 -9.40145,-2.96102 -13.14735,-5.60113 C 6.3283409,108.54916 1.8140309,100.52141 1.0637909,90.528733 -0.0061391,76.27811 9.4952509,62.633764 23.573151,58.204462 l 4.27164,-1.343976 H 224.3945 c 189.0784,0 196.6882,0.0424 200.1896,1.115423 11.2601,3.450652 19.1907,11.31423 22.3877,22.198473 1.3757,4.683676 1.2663,12.899831 -0.2365,17.765491 -2.3695,7.671437 -8.6553,15.076857 -15.9027,18.735367 -7.5793,3.826 7.7084,3.56777 -206.4381,3.48703 -107.43502,-0.0405 -196.018909,-0.18775 -196.853029,-0.32723 z"
     id="path899" />
  <path
     style="fill:#ffffff;stroke:none;stroke-width:0.606635"
     d="m 25.970851,279.50534 c -5.13653,-1.11761 -10.76587,-4.11065 -14.67486,-7.80242 -4.2355101,-4.00014 -6.4569401,-7.24895 -8.4593501,-12.3717 -1.38727,-3.54904 -1.60305,-4.99928 -1.60305,-10.77405 0,-5.77477 0.21578,-7.22501 1.60305,-10.77405 4.03771,-10.32963 12.8961401,-17.97157 23.4175501,-20.20174 6.19978,-1.31413 390.272009,-1.27149 396.510009,0.044 11.7745,2.48306 21.2499,11.38424 24.2941,22.82191 1.0894,4.09268 1.1181,12.02055 0.058,15.99611 -2.2603,8.47743 -8.7374,16.56708 -16.1982,20.23102 -8.1118,3.98365 7.0881,3.71377 -206.827,3.6723 -159.029529,-0.0308 -195.098979,-0.18401 -198.120329,-0.84141 z"
     id="path938" />
  <path
     style="fill:#ffffff;stroke:none;stroke-width:0.606635"
     d="M 29.058061,439.97495 C 11.411691,437.91268 -1.2256191,421.55481 1.3223109,404.0735 3.0318209,392.34455 10.805281,382.98163 22.566081,378.48596 l 3.4588,-1.32215 196.734919,-0.15714 c 215.9767,-0.17251 200.4236,-0.42885 208.0665,3.42929 7.2537,3.66165 13.5387,11.06446 15.909,18.73851 1.5028,4.86566 1.6122,13.08181 0.2365,17.76549 -3.1518,10.73011 -10.7877,18.40413 -22.0844,22.19442 -3.2138,1.07832 -10.4837,1.12217 -197.763,1.19271 -106.93459,0.0403 -196.064449,-0.11818 -198.066339,-0.35214 z"
     id="path977" />
</svg>
